Coordinates
version=1
nRows=16
nColumns=40
inDegrees=yes

Units are S.I. units (second, meters, Newtons, ...)
Angles are in degrees.

endheader
time	pelvis_tilt	pelvis_list	pelvis_rotation	pelvis_tx	pelvis_ty	pelvis_tz	hip_flexion_r	hip_adduction_r	hip_rotation_r	knee_angle_r	knee_angle_r_beta	ankle_angle_r	subtalar_angle_r	mtp_angle_r	hip_flexion_l	hip_adduction_l	hip_rotation_l	knee_angle_l	knee_angle_l_beta	ankle_angle_l	subtalar_angle_l	mtp_angle_l	lumbar_extension	lumbar_bending	lumbar_rotation	arm_flex_r	arm_add_r	arm_rot_r	elbow_flex_r	pro_sup_r	wrist_flex_r	wrist_dev_r	arm_flex_l	arm_add_l	arm_rot_l	elbow_flex_l	pro_sup_l	wrist_flex_l	wrist_dev_l
     43.53250000	     -3.94803415	     -4.49504033	      3.95158317	      1.05252284	      0.93317833	      0.52929101	      7.41180659	      3.54660558	    -16.73089184	     11.63795872	     11.63795872	      9.83847104	      0.65062839	     -5.02861669	     31.03496880	    -11.43892783	      1.09171164	     38.68099677	     38.68099677	     10.64273892	    -14.34692995	      9.06367565	    -10.15507665	      5.33912870	      1.75076663	     24.97976147	    -17.42008480	     -4.48146001	     48.26570449	     45.63858524	      0.00000000	      0.00000000	      1.77679764	     -7.80885920	     -4.51664987	     29.60262691	     46.09550588	      0.00000000	      0.00000000
     43.54557143	     -4.09561851	     -4.58278940	      4.44126308	      1.05129715	      0.93259319	      0.52876891	      6.97894144	      3.68455170	    -17.19490071	     11.01102398	     11.01102398	      9.48132987	      0.75189493	     -6.50768495	     31.25048949	    -11.15535717	      1.03956675	     34.92381530	     34.92381530	      9.68019051	    -13.18544575	      7.04707066	    -10.14748509	      5.43139303	      2.27505669	     25.06282726	    -18.46078921	     -4.41731691	     52.54191898	     45.48012246	      0.00000000	      0.00000000	      1.39342520	     -7.47882667	     -4.27257886	     29.41629347	     46.04417231	      0.00000000	      0.00000000
     43.55864286	     -4.23728817	     -4.62053493	      4.87818995	      1.05007397	      0.93209795	      0.52818164	      6.67703498	      3.74645892	    -17.44903809	     10.69767371	     10.69767371	      9.63172717	      0.69026948	     -6.63023528	     31.41711980	    -10.79261288	      0.95151851	     31.34720905	     31.34720905	      9.53422803	    -11.64666203	      7.39229338	    -10.06385227	      5.43056822	      2.26553363	     26.50532048	    -18.68923443	     -4.62622489	     53.53434580	     45.46200075	      0.00000000	      0.00000000	      0.82585872	     -7.29433290	     -4.16002176	     29.03935210	     46.01700188	      0.00000000	      0.00000000
     43.57171429	     -4.32011677	     -4.73102941	      5.32187685	      1.04900517	      0.93159139	      0.52746229	      6.25005655	      3.89442885	    -17.83257854	     10.27453089	     10.27453089	      9.73831262	      0.83648791	     -6.80121165	     31.50891172	    -10.50548647	      0.79429680	     27.96162249	     27.96162249	      9.36710672	     -9.92388089	      7.61814981	    -10.02488553	      5.50590128	      2.11203945	     27.89585290	    -18.78471592	     -4.86074503	     54.86778671	     45.43254918	      0.00000000	      0.00000000	      0.20660866	     -7.13058611	     -4.04466002	     28.65659811	     45.98823141	      0.00000000	      0.00000000
     43.58478571	     -4.52419728	     -4.97915642	      5.76374307	      1.04784108	      0.93080024	      0.52658876	      6.05733717	      4.14725149	    -18.20900077	     10.00834093	     10.00834093	      9.87224472	      0.88518372	     -6.94090893	     31.85567291	    -10.29238814	      0.73661061	     24.99285225	     24.99285225	      9.10917379	     -8.37979944	      8.00764265	     -9.84669248	      5.79697134	      2.16992895	     29.20463373	    -19.10792439	     -5.08109629	     55.82105272	     45.41544417	      0.00000000	      0.00000000	     -0.32261381	     -6.88051921	     -3.97549054	     28.41703659	     45.96826481	      0.00000000	      0.00000000
     43.59785714	     -4.47068527	     -4.98166169	      6.14205900	      1.04711788	      0.93060070	      0.52566604	      5.37797556	      4.19680007	    -18.64148780	      9.44057738	      9.44057738	      9.95509771	      1.35806888	     -7.14141773	     31.67349452	     -9.95722288	      0.18078749	     22.09379108	     22.09379108	      8.79871058	     -6.58006745	      8.20486954	     -9.97827165	      5.72822560	      1.89889354	     30.33357786	    -18.95803459	     -5.34868307	     57.54989752	     45.37236809	      0.00000000	      0.00000000	     -0.97463323	     -6.82013424	     -3.88023972	     28.05868325	     45.94200940	      0.00000000	      0.00000000
     43.61092857	     -4.55716510	     -5.11401516	      6.48855297	      1.04635145	      0.93009160	      0.52458130	      4.94891050	      4.34263465	    -19.03636888	      9.03892435	      9.03892435	     10.07067161	      1.70120769	     -7.30607789	     31.78057465	     -9.69569593	     -0.22440480	     19.77953145	     19.77953145	      8.44829779	     -5.16786349	      8.43382988	     -9.89023051	      5.85219790	      1.88288308	     31.33342076	    -19.05876105	     -5.63652993	     58.90031930	     45.34320165	      0.00000000	      0.00000000	     -1.50882845	     -6.67894362	     -3.80740476	     27.82461766	     45.92115331	      0.00000000	      0.00000000
     43.62400000	     -4.58809386	     -5.23551574	      6.79572999	      1.04573697	      0.92966129	      0.52341647	      4.44643592	      4.48224374	    -19.43207444	      8.62891165	      8.62891165	     10.18777320	      2.14122045	     -7.43002226	     31.86299396	     -9.45044657	     -0.71431599	     17.99754757	     17.99754757	      8.06184073	     -4.03412158	      8.56770064	     -9.85913003	      5.94273548	      1.87222755	     32.23902256	    -19.08842856	     -5.97730041	     60.34578658	     45.31298809	      0.00000000	      0.00000000	     -2.00344990	     -6.55615665	     -3.73128247	     27.60449320	     45.90062345	      0.00000000	      0.00000000
     43.63707143	     -4.62936158	     -5.36746613	      7.05262837	      1.04523460	      0.92921881	      0.52220171	      3.97442690	      4.62343150	    -19.79177389	      8.27121770	      8.27121770	     10.34360762	      2.57311648	     -7.48133413	     31.99483507	     -9.23858541	     -1.21722932	     16.77837561	     16.77837561	      7.61604402	     -3.28544835	      8.59333723	     -9.80129987	      6.02324212	      1.92349655	     33.02433663	    -19.10701130	     -6.35418404	     61.70039154	     45.28748405	      0.00000000	      0.00000000	     -2.44254801	     -6.44068768	     -3.65790219	     27.41175121	     45.88175008	      0.00000000	      0.00000000
     43.65014286	     -4.74087434	     -5.53853124	      7.24181836	      1.04476450	      0.92861772	      0.52095933	      3.66108275	      4.78595085	    -19.98531513	      8.05911293	      8.05911293	     10.54186700	      2.75787840	     -7.48606012	     32.24362369	     -9.07988910	     -1.65901443	     16.12171344	     16.12171344	      7.19943453	     -2.98846795	      8.66156963	     -9.66597161	      6.12551311	      2.03840282	     33.85149269	    -19.19515853	     -6.58574477	     62.48817911	     45.27472666	      0.00000000	      0.00000000	     -2.81924985	     -6.31288311	     -3.61796008	     27.26375801	     45.86880311	      0.00000000	      0.00000000
     43.66321429	     -4.76934920	     -5.61504779	      7.36096107	      1.04460446	      0.92815297	      0.51958916	      3.23083306	      4.84231752	    -20.07833886	      7.87259509	      7.87259509	     10.76962663	      2.97305806	     -7.47729406	     32.38052237	     -8.89044226	     -2.07264675	     16.01604236	     16.01604236	      6.74896671	     -2.99572623	      8.66300441	     -9.52369840	      6.12366880	      2.15012313	     34.58722323	    -19.20337747	     -6.77465078	     63.17540101	     45.26289467	      0.00000000	      0.00000000	     -3.20025004	     -6.26089159	     -3.60070379	     27.09343873	     45.86003305	      0.00000000	      0.00000000
     43.67628571	     -4.71592899	     -5.73994153	      7.45705244	      1.04474193	      0.92768122	      0.51812467	      2.67851768	      4.92746576	    -20.54657737	      7.69450858	      7.69450858	     11.31774985	      3.93852172	     -6.78853966	     32.29059548	     -8.77455618	     -2.38030893	     16.08503909	     16.08503909	      5.59645971	     -3.41352381	      6.78847209	     -9.54750011	      6.19150326	      2.50487717	     34.43742483	    -19.14927002	     -7.91440314	     65.62149084	     45.23872513	      0.00000000	      0.00000000	     -3.44536951	     -6.22740890	     -3.49781529	     27.00345739	     45.84608756	      0.00000000	      0.00000000
     43.68935714	     -4.70288303	     -5.79160690	      7.40114276	      1.04498975	      0.92708071	      0.51666187	      2.23690548	      4.93497452	    -20.42858030	      7.63172578	      7.63172578	     11.60631674	      4.06328269	     -6.79224932	     32.27120764	     -8.66826820	     -2.61296102	     16.77164843	     16.77164843	      5.24432978	     -3.92449918	      6.69676586	     -9.41398525	      6.13945100	      2.63752872	     35.10735014	    -19.08298523	     -7.98382560	     66.05180954	     45.23127003	      0.00000000	      0.00000000	     -3.73068267	     -6.19691130	     -3.47622920	     26.83763626	     45.83864027	      0.00000000	      0.00000000
     43.70242857	     -4.69401346	     -5.94624098	      7.38282498	      1.04539657	      0.92632386	      0.51511824	      1.81696320	      5.04498124	    -20.41835662	      7.60621824	      7.60621824	     11.95401776	      4.19607977	     -6.75948248	     32.21785973	     -8.65017483	     -2.67464500	     17.64522824	     17.64522824	      4.72064663	     -4.53687922	      6.53409141	     -9.31730276	      6.20076787	      2.68971795	     35.49130600	    -18.88128950	     -8.04366548	     66.52981156	     45.22074088	      0.00000000	      0.00000000	     -4.06809392	     -6.22019362	     -3.47768492	     26.68680044	     45.83428347	      0.00000000	      0.00000000
     43.71550000	     -4.69146517	     -6.11842762	      7.28017043	      1.04606183	      0.92539230	      0.51354052	      1.42279923	      5.15215152	    -20.35825282	      7.66064188	      7.66064188	     12.40228310	      4.41215531	     -6.61205332	     32.06567606	     -8.65586480	     -2.47223027	     18.63266603	     18.63266603	      4.21252099	     -5.35772847	      6.14129901	     -9.13113405	      6.26527987	      2.73230611	     35.77886850	    -18.63574744	     -8.14708620	     67.21916480	     45.20572956	      0.00000000	      0.00000000	     -4.41820760	     -6.24120218	     -3.50931089	     26.61058293	     45.83525010	      0.00000000	      0.00000000
     43.72857143	     -4.63966122	     -6.13116219	      7.04220849	      1.04695659	      0.92459493	      0.51186112	      0.96951402	      5.06221178	    -20.09497321	      7.77283907	      7.77283907	     12.79611169	      4.54172623	     -6.63795203	     31.64699150	     -8.59106148	     -2.49284703	     19.53393813	     19.53393813	      3.85481559	     -5.90106924	      6.03929904	     -9.01856670	      6.15921587	      2.93448049	     35.92021508	    -18.51073865	     -8.16394140	     67.47237299	     45.19937568	      0.00000000	      0.00000000	     -4.68218124	     -6.30849062	     -3.53930318	     26.53375514	     45.83628191	      0.00000000	      0.00000000
